<svg width="64" height="64" viewBox="0 0 64 64" fill="none" xmlns="http://www.w3.org/2000/svg">
<path d="M37.35 17.79H49.12C56.06 17.79 60.53 21.36 60.53 27.44V27.52C60.53 33.99 55.55 37.4 48.72 37.4H44.95V45.24H37.34V17.79H37.35ZM49.4 31.44C52.1 31.44 53.75 30.03 53.75 27.87V27.79C53.75 25.44 52.1 24.18 49.36 24.18H45.79V31.44H49.4Z" fill="#0011FF"/>
<path d="M18.33 39.04H11.07V17.79H3.46997V45.71H18.33V39.04Z" fill="#0011FF"/>
<path d="M27.74 17.79V35.16C27.74 37.71 26.52 38.96 24.6 39C23.02 39.04 24.36 39 20.37 39.04V45.7H25.07C28.21 45.7 30.8 44.72 32.6 42.92C34.44 41.08 35.3 38.64 35.3 35.19V17.78H27.73L27.74 17.79Z" fill="#0011FF"/>
</svg>
